<?xml version="1.0" standalone="no"?>
<!DOCTYPE svg PUBLIC "-//W3C//DTD SVG 20010904//EN"
 "http://www.w3.org/TR/2001/REC-SVG-20010904/DTD/svg10.dtd">
<svg version="1.0" xmlns="http://www.w3.org/2000/svg"
 width="512.000000pt" height="512.000000pt" viewBox="0 0 512.000000 512.000000"
 preserveAspectRatio="xMidYMid meet">

<g transform="translate(0.000000,512.000000) scale(0.100000,-0.100000)"
fill="#000000" stroke="none">
<path d="M1675 4574 c-38 -8 -107 -33 -151 -54 -152 -73 -274 -243 -312 -431
-14 -72 -14 -85 -1 -108 l15 -26 1129 -5 c1022 -5 1135 -7 1186 -22 302 -91
492 -272 590 -563 l24 -70 5 -1048 5 -1049 24 -19 c33 -27 51 -24 103 16 99
78 192 228 222 360 8 39 75 495 148 1015 119 846 133 959 132 1080 0 123 -3
142 -28 210 -41 109 -69 152 -146 223 -78 73 -154 116 -255 146 -38 12 -248
45 -465 76 -451 62 -767 106 -1475 207 -549 77 -644 85 -750 62z"/>
<path d="M797 3615 c-170 -47 -312 -187 -357 -354 -8 -31 -11 -336 -11 -1134
0 -1074 1 -1093 21 -1151 44 -128 140 -233 267 -294 l78 -37 1315 -3 c1287 -2
1316 -2 1380 17 157 48 282 172 330 330 19 61 20 98 20 1150 l0 1086 -23 65
c-44 124 -124 219 -234 277 -123 66 -46 63 -1458 62 -1028 -1 -1289 -3 -1328
-14z m1403 -807 c82 -43 84 -50 90 -296 l5 -217 215 -5 c145 -3 222 -9 237
-17 57 -33 91 -117 74 -181 -13 -46 -65 -99 -112 -112 -18 -6 -121 -10 -226
-10 l-193 0 0 -209 c0 -199 -1 -209 -22 -241 -53 -77 -134 -100 -208 -59 -78
44 -85 65 -88 301 l-3 207 -207 3 c-197 3 -209 4 -245 27 -51 31 -81 91 -74
149 5 50 29 87 77 120 32 21 42 22 241 22 l209 0 0 193 c0 105 5 208 10 227
17 62 88 116 155 119 12 1 41 -9 65 -21z"/>
</g>
</svg>
