<?xml version="1.0" encoding="UTF-8"?>
<!DOCTYPE svg PUBLIC "-//W3C//DTD SVG 1.1//EN" "http://www.w3.org/Graphics/SVG/1.1/DTD/svg11.dtd">
<svg xmlns="http://www.w3.org/2000/svg" version="1.1" width="512px" height="512px" style="shape-rendering:geometricPrecision; text-rendering:geometricPrecision; image-rendering:optimizeQuality; fill-rule:evenodd; clip-rule:evenodd" xmlns:xlink="http://www.w3.org/1999/xlink">
<g><path style="opacity:0.898" fill="#000000" d="M 477.5,121.5 C 479.442,126.056 480.108,131.056 479.5,136.5C 466.864,138.52 454.197,140.02 441.5,141C 438.707,136.582 436.041,132.082 433.5,127.5C 448.214,125.099 462.881,123.099 477.5,121.5 Z"/></g>
<g><path style="opacity:0.916" fill="#000000" d="M 110.5,125.5 C 117.617,124.14 122.451,126.807 125,133.5C 126.101,137.269 126.934,141.103 127.5,145C 124.64,157.215 121.64,169.381 118.5,181.5C 118.726,186.405 119.893,191.072 122,195.5C 123.622,204.79 119.789,208.29 110.5,206C 104.95,198.848 102.283,190.681 102.5,181.5C 102.673,177.459 103.173,173.459 104,169.5C 106.936,161.463 109.436,153.296 111.5,145C 110.293,140.798 108.627,136.798 106.5,133C 106.994,129.992 108.327,127.492 110.5,125.5 Z"/></g>
<g><path style="opacity:0.942" fill="#000000" d="M 414.5,128.5 C 416.144,128.286 417.644,128.62 419,129.5C 422.267,134.7 424.934,140.034 427,145.5C 418.301,149.847 410.968,155.847 405,163.5C 385.667,194.833 366.333,226.167 347,257.5C 340.167,250.667 333.333,243.833 326.5,237C 345.791,207.585 364.958,178.085 384,148.5C 392.366,138.912 402.533,132.245 414.5,128.5 Z"/></g>
<g><path style="opacity:0.913" fill="#000000" d="M 65.5,143.5 C 74.2143,145.392 78.8809,150.892 79.5,160C 78.8269,163.539 77.9936,167.039 77,170.5C 73.9914,175.514 71.8248,180.847 70.5,186.5C 70.7874,189.865 71.9541,192.865 74,195.5C 75.6218,204.79 71.7885,208.29 62.5,206C 54.281,196.689 52.4477,186.189 57,174.5C 59.4402,169.953 61.6068,165.287 63.5,160.5C 56.5429,153.762 57.2095,148.095 65.5,143.5 Z"/></g>
<g><path style="opacity:0.913" fill="#000000" d="M 160.5,143.5 C 169.456,145.469 174.122,151.135 174.5,160.5C 172.072,169.359 169.072,178.025 165.5,186.5C 165.787,189.865 166.954,192.865 169,195.5C 170.622,204.79 166.789,208.29 157.5,206C 149.281,196.689 147.448,186.189 152,174.5C 154.44,169.953 156.607,165.287 158.5,160.5C 151.543,153.762 152.21,148.095 160.5,143.5 Z"/></g>
<g><path style="opacity:0.945" fill="#000000" d="M 31.5,243.5 C 86.5,243.5 141.5,243.5 196.5,243.5C 196.5,251.5 196.5,259.5 196.5,267.5C 142.167,267.5 87.8333,267.5 33.5,267.5C 32.5793,259.532 31.9127,251.532 31.5,243.5 Z"/></g>
<g><path style="opacity:0.915" fill="#000000" d="M 317.5,249.5 C 318.552,249.351 319.552,249.517 320.5,250C 327.015,256.348 333.348,262.848 339.5,269.5C 335,277.167 330.5,284.833 326,292.5C 324.959,294.585 323.459,296.252 321.5,297.5C 314.348,290.848 307.348,284.015 300.5,277C 306.418,267.931 312.085,258.764 317.5,249.5 Z"/></g>
<g><path style="opacity:0.982" fill="#000000" d="M 36.5,281.5 C 90.5041,281.167 144.504,281.5 198.5,282.5C 206.163,305.335 221.997,317.335 246,318.5C 262.27,318.365 275.604,312.032 286,299.5C 287.954,295.718 290.454,292.385 293.5,289.5C 300.833,296.167 307.833,303.167 314.5,310.5C 278.479,366.846 226.812,393.012 159.5,389C 106.033,381.188 67.5329,353.021 44,304.5C 40.5943,297.116 38.0943,289.45 36.5,281.5 Z"/></g>
</svg>
